<?xml version="1.0" standalone="no"?>
<!DOCTYPE svg PUBLIC "-//W3C//DTD SVG 20010904//EN"
 "http://www.w3.org/TR/2001/REC-SVG-20010904/DTD/svg10.dtd">
<svg version="1.0" xmlns="http://www.w3.org/2000/svg"
 width="1137.000000pt" height="1280.000000pt" viewBox="0 0 1137.000000 1280.000000"
 preserveAspectRatio="xMidYMid meet">
<g transform="translate(0.000000,1280.000000) scale(0.100000,-0.100000)"
fill="#000000" stroke="none">
<path d="M5615 12678 c-384 -578 -879 -1111 -1570 -1693 -314 -264 -558 -456
-1185 -930 -933 -706 -1267 -982 -1651 -1365 -579 -578 -922 -1134 -1070
-1735 -90 -366 -157 -1017 -131 -1265 7 -58 16 -152 22 -210 105 -1039 687
-1776 1650 -2088 258 -84 455 -124 795 -164 173 -20 687 -17 865 5 561 70 987
238 1356 535 168 135 364 354 470 524 31 51 54 62 54 26 0 -101 -62 -782 -101
-1113 -135 -1157 -392 -1846 -873 -2343 -363 -375 -881 -648 -1556 -821 l-155
-40 3145 0 3145 0 -145 39 c-1184 315 -1821 857 -2156 1835 -174 506 -272
1098 -354 2134 -23 287 -24 331 -10 331 5 0 37 -40 70 -90 115 -171 312 -383
470 -507 289 -226 677 -395 1080 -472 233 -44 380 -56 700 -55 423 0 704 32
1035 119 1041 272 1661 955 1809 1995 55 383 54 642 -4 1100 -65 510 -144 788
-330 1155 -176 350 -390 643 -727 998 -390 409 -736 699 -1828 1527 -607 460
-882 677 -1160 914 -479 409 -876 808 -1193 1202 -103 129 -287 382 -347 479
-26 41 -48 75 -50 75 -1 0 -33 -46 -70 -102z"/>
</g>
</svg>
